<svg width="199" height="35" viewBox="0 0 199 35" fill="none" xmlns="http://www.w3.org/2000/svg">
<path d="M94.3665 9.84278C96.8439 9.84278 98.7837 10.5894 100.186 12.0828C101.612 13.5761 102.325 15.6178 102.325 18.2078V29.6528H95.4533V19.1178C95.4533 18.0678 95.1611 17.2511 94.5769 16.6678C93.9926 16.0844 93.1979 15.7928 92.193 15.7928C91.188 15.7928 90.3933 16.0844 89.8091 16.6678C89.2248 17.2511 88.9326 18.0678 88.9326 19.1178V29.6528H82.0614V19.1178C82.0614 18.0678 81.7692 17.2511 81.185 16.6678C80.624 16.0844 79.8411 15.7928 78.8361 15.7928C77.8078 15.7928 77.0014 16.0844 76.4172 16.6678C75.8329 17.2511 75.5407 18.0678 75.5407 19.1178V29.6528H68.6695V10.0178H75.5407V12.6078C76.1484 11.7678 76.9313 11.1028 77.8896 10.6128C78.8712 10.0994 79.993 9.84278 81.2551 9.84278C82.7041 9.84278 83.9895 10.1578 85.1114 10.7878C86.2566 11.4178 87.1564 12.3044 87.8108 13.4478C88.5119 12.3744 89.4351 11.5111 90.5803 10.8578C91.7255 10.1811 92.9876 9.84278 94.3665 9.84278Z" fill="#83AB2E"/>
<path d="M104.967 19.8178C104.967 17.7878 105.329 16.0144 106.054 14.4978C106.802 12.9811 107.807 11.8144 109.069 10.9978C110.354 10.1811 111.78 9.77278 113.346 9.77278C114.701 9.77278 115.87 10.0411 116.852 10.5778C117.833 11.1144 118.593 11.8378 119.13 12.7478V10.0178H126.002V29.6528H119.13V26.9228C118.593 27.8328 117.822 28.5561 116.817 29.0928C115.835 29.6294 114.678 29.8978 113.346 29.8978C111.78 29.8978 110.354 29.4894 109.069 28.6728C107.807 27.8561 106.802 26.6894 106.054 25.1728C105.329 23.6328 104.967 21.8478 104.967 19.8178ZM119.13 19.8178C119.13 18.5578 118.78 17.5661 118.079 16.8428C117.401 16.1194 116.56 15.7578 115.555 15.7578C114.526 15.7578 113.673 16.1194 112.995 16.8428C112.318 17.5428 111.979 18.5344 111.979 19.8178C111.979 21.0778 112.318 22.0811 112.995 22.8278C113.673 23.5511 114.526 23.9128 115.555 23.9128C116.56 23.9128 117.401 23.5511 118.079 22.8278C118.78 22.1044 119.13 21.1011 119.13 19.8178Z" fill="#83AB2E"/>
<path d="M136.788 13.4828C137.56 12.3628 138.494 11.4761 139.593 10.8228C140.691 10.1694 141.872 9.84278 143.134 9.84278V17.1578H141.206C139.71 17.1578 138.6 17.4494 137.875 18.0328C137.151 18.6161 136.788 19.6311 136.788 21.0778V29.6528H129.917V10.0178H136.788V13.4828Z" fill="#83AB2E"/>
<path d="M152.468 12.7478C153.006 11.8144 153.765 11.0911 154.747 10.5778C155.729 10.0411 156.885 9.77278 158.218 9.77278C159.784 9.77278 161.198 10.1811 162.46 10.9978C163.745 11.8144 164.75 12.9811 165.475 14.4978C166.222 16.0144 166.596 17.7878 166.596 19.8178C166.596 21.8478 166.222 23.6328 165.475 25.1728C164.75 26.6894 163.745 27.8561 162.46 28.6728C161.198 29.4894 159.784 29.8978 158.218 29.8978C156.885 29.8978 155.729 29.6411 154.747 29.1278C153.765 28.5911 153.006 27.8561 152.468 26.9228V29.6528H145.597V3.75278H152.468V12.7478ZM159.62 19.8178C159.62 18.5344 159.269 17.5428 158.568 16.8428C157.89 16.1194 157.049 15.7578 156.044 15.7578C155.039 15.7578 154.186 16.1194 153.485 16.8428C152.807 17.5661 152.468 18.5578 152.468 19.8178C152.468 21.1011 152.807 22.1044 153.485 22.8278C154.186 23.5511 155.039 23.9128 156.044 23.9128C157.049 23.9128 157.89 23.5511 158.568 22.8278C159.269 22.0811 159.62 21.0778 159.62 19.8178Z" fill="#83AB2E"/>
<path d="M176.296 3.75278V29.6528H169.425V3.75278H176.296Z" fill="#83AB2E"/>
<path d="M199 19.6078C199 20.1444 198.965 20.6811 198.895 21.2178H185.889C185.959 22.2911 186.251 23.0961 186.765 23.6328C187.303 24.1461 187.98 24.4028 188.798 24.4028C189.944 24.4028 190.762 23.8894 191.252 22.8628H198.579C198.275 24.2161 197.68 25.4294 196.791 26.5028C195.927 27.5528 194.828 28.3811 193.496 28.9878C192.164 29.5944 190.691 29.8978 189.079 29.8978C187.139 29.8978 185.409 29.4894 183.89 28.6728C182.395 27.8561 181.214 26.6894 180.35 25.1728C179.508 23.6561 179.087 21.8711 179.087 19.8178C179.087 17.7644 179.508 15.9911 180.35 14.4978C181.191 12.9811 182.359 11.8144 183.855 10.9978C185.374 10.1811 187.116 9.77278 189.079 9.77278C191.019 9.77278 192.736 10.1694 194.232 10.9628C195.728 11.7561 196.897 12.8994 197.738 14.3928C198.579 15.8628 199 17.6011 199 19.6078ZM191.989 17.8928C191.989 17.0528 191.708 16.3994 191.147 15.9328C190.586 15.4428 189.885 15.1978 189.044 15.1978C188.202 15.1978 187.513 15.4311 186.975 15.8978C186.438 16.3411 186.087 17.0061 185.924 17.8928H191.989Z" fill="#83AB2E"/>
<path d="M0 17.5C0 7.83502 7.84785 0 17.5287 0C27.2095 0 35.0573 7.83502 35.0573 17.5V35H17.5287C7.84785 35 0 27.165 0 17.5Z" fill="#83AB2E"/>
</svg>
